<svg width="600" height="600" viewBox="0 0 600 600" fill="none" xmlns="http://www.w3.org/2000/svg">
<rect width="600" height="600" rx="112" transform="matrix(-1 0 0 1 600 0)" fill="#9E01FE" fill-opacity="0.5"/>
<rect width="600" height="600" rx="112" transform="matrix(-1 0 0 1 600 0)" fill="url(#paint0_radial_27_33)"/>
<path fill-rule="evenodd" clip-rule="evenodd" d="M246.885 303.699C259.751 266.564 275.745 248.862 298.336 240.073L294.937 231.336C268.904 241.464 251.431 261.943 238.027 300.63C224.703 339.086 215.125 396.297 205.21 481.011L214.521 482.101C224.444 397.322 233.939 341.066 246.885 303.699Z" fill="#FAFAFA"/>
<path fill-rule="evenodd" clip-rule="evenodd" d="M187.642 251.531C199.323 292.646 221.924 333.939 260.218 386.773L267.809 381.272C229.805 328.837 207.911 288.572 196.661 248.969C185.422 209.412 184.693 170.135 189.643 119.456L180.312 118.544C175.309 169.771 175.949 210.371 187.642 251.531Z" fill="#FAFAFA"/>
<path fill-rule="evenodd" clip-rule="evenodd" d="M313.928 253.985C306.887 248.595 303.321 241.81 303.321 235.031C303.321 228.253 306.887 221.468 313.928 216.078C320.978 210.681 331.124 207.075 342.713 207.075C354.302 207.075 364.448 210.681 371.498 216.078C378.539 221.468 382.105 228.253 382.105 235.031C382.105 241.81 378.539 248.595 371.498 253.985C364.448 259.382 354.302 262.988 342.713 262.988C331.124 262.988 320.978 259.382 313.928 253.985ZM342.713 272.363C315.78 272.363 293.946 255.649 293.946 235.031C293.946 214.414 315.78 197.7 342.713 197.7C369.646 197.7 391.48 214.414 391.48 235.031C391.48 255.649 369.646 272.363 342.713 272.363Z" fill="#FAFAFA"/>
<path fill-rule="evenodd" clip-rule="evenodd" d="M296.353 394.938C325.035 368.22 334.958 328.079 336.972 270.509L327.602 270.181C325.605 327.291 315.743 364.063 289.963 388.078C264.016 412.249 220.933 424.483 149.674 429.458L150.326 438.811C221.781 433.822 267.837 421.501 296.353 394.938Z" fill="#FAFAFA"/>
<path fill-rule="evenodd" clip-rule="evenodd" d="M236.965 203.846C213.518 178.114 193.906 151.911 188.922 123.569L179.688 125.193C185.18 156.42 206.529 184.363 230.035 210.16C237.413 218.258 245.147 226.29 252.745 234.181C257.253 238.864 261.713 243.496 266.023 248.063C277.697 260.434 288.427 272.485 296.835 284.472L304.51 279.089C295.695 266.521 284.578 254.066 272.841 241.629C268.39 236.912 263.871 232.219 259.342 227.516C251.825 219.709 244.279 211.873 236.965 203.846Z" fill="#FAFAFA"/>
<path fill-rule="evenodd" clip-rule="evenodd" d="M385.63 234.309C403.767 241.922 416.726 245.431 449.525 248.775L450.475 239.449C418.334 236.172 406.326 232.829 389.258 225.664L385.63 234.309Z" fill="#FAFAFA"/>
<defs>
<radialGradient id="paint0_radial_27_33" cx="0" cy="0" r="1" gradientUnits="userSpaceOnUse" gradientTransform="translate(64 539.5) rotate(-45.1791) scale(678.826)">
<stop stop-color="#9E01FE"/>
<stop offset="1" stop-color="#0085FF"/>
</radialGradient>
</defs>
</svg>
